<?xml version="1.0" standalone="no"?><!DOCTYPE svg PUBLIC "-//W3C//DTD SVG 1.1//EN" "http://www.w3.org/Graphics/SVG/1.1/DTD/svg11.dtd"><svg t="1724815035084" class="icon" viewBox="0 0 1024 1024" version="1.1" xmlns="http://www.w3.org/2000/svg" p-id="8244" xmlns:xlink="http://www.w3.org/1999/xlink" width="200" height="200"><path d="M751.672889 696.661333l136.362667 136.362667a42.666667 42.666667 0 0 1-60.302223 60.302222l-136.988444-136.874666a402.432 402.432 0 0 0 60.928-59.733334zM442.652444 85.333333a357.319111 357.319111 0 0 1 282.510223 576.227556l-9.216 11.377778c-4.437333 5.233778-9.102222 10.410667-13.880889 15.473777l-5.802667 5.973334-7.68 7.509333-5.688889 5.290667-14.449778 12.458666-7.964444 6.257778A357.319111 357.319111 0 1 1 442.595556 85.333333z m0 85.333334a271.985778 271.985778 0 1 0 0 544.028444 271.985778 271.985778 0 0 0 0-544.028444z" fill="#000000" p-id="8245"></path></svg>